<svg xmlns="http://www.w3.org/2000/svg" viewBox="0 0 220 40" fill="none" role="img" aria-label="lacidaweb">
  <defs>
    <linearGradient id="g" x1="0" y1="0" x2="40" y2="40" gradientUnits="userSpaceOnUse">
      <stop stop-color="#06B6D4"/>
      <stop offset="1" stop-color="#10B981"/>
    </linearGradient>
  </defs>
  <rect x="0" y="2" width="36" height="36" rx="9" fill="url(#g)"/>
  <path d="M11 28V12h5.2c3.8 0 6.2 2 6.2 5.4 0 2.4-1.3 4.1-3.5 4.8L24 28h-3.8l-4.6-2.3V28H11zm3.8-6.4h1c1.6 0 2.4-.7 2.4-1.8 0-1.1-.8-1.8-2.4-1.8h-1v3.6z" fill="#fff"/>
  <path fill="#FAFAFA" d="M48 28.2V11.8h3.4v16.4H48zm8.1 0V11.8h3.3l7.2 11.4V11.8h3.2v16.4h-3.3l-7.2-11.5v11.5h-3.2zm19.5.3c-4.8 0-8-3.4-8-8.5s3.2-8.5 8.3-8.5 8 3.4 8 8.5-3.2 8.5-8.3 8.5zm0-3.1c2.8 0 4.7-2.1 4.7-5.4s-1.9-5.4-4.6-5.4-4.7 2.1-4.7 5.4 1.9 5.4 4.6 5.4zm14.2 2.8V11.8h5.6c4.5 0 7.2 2.3 7.2 6.1 0 3.1-1.8 5.2-4.8 5.8l5.2 4.5h-4.5l-4.8-4.2h-1.3v4.2H89zm3.4-7.2h2c2.2 0 3.4-1 3.4-2.7 0-1.7-1.2-2.7-3.4-2.7h-2v5.4zm15.8 7.5c-4.8 0-8-3.4-8-8.5s3.2-8.5 8.3-8.5 8 3.4 8 8.5-3.2 8.5-8.3 8.5zm0-3.1c2.8 0 4.7-2.1 4.7-5.4s-1.9-5.4-4.6-5.4-4.7 2.1-4.7 5.4 1.9 5.4 4.6 5.4zm18.5 3.1h-3.5l-1.2-3.4h-6.1l-1.2 3.4h-3.4l5.9-16.4h3.6l5.9 16.4zm-6.8-6.2h4.3l-2.1-6-2.2 6zm14.5 6.2V11.8h3.4v13.3h7.8v3.1h-7.8v.3zm16.5 0l-6.2-8.5v8.5h-3.4V11.8h3.4l6.2 8.5v-8.5h3.4v16.4h-3.4z"/>
</svg>
